<?xml version="1.0" encoding="UTF-8" standalone="no"?>
<!-- Created with Inkscape (http://www.inkscape.org/) -->

<svg
   xmlns:dc="http://purl.org/dc/elements/1.1/"
   xmlns:cc="http://creativecommons.org/ns#"
   xmlns:rdf="http://www.w3.org/1999/02/22-rdf-syntax-ns#"
   xmlns:svg="http://www.w3.org/2000/svg"
   xmlns="http://www.w3.org/2000/svg"
   xmlns:sodipodi="http://sodipodi.sourceforge.net/DTD/sodipodi-0.dtd"
   xmlns:inkscape="http://www.inkscape.org/namespaces/inkscape"
   width="256"
   height="256"
   viewBox="0 0 67.733332 67.733336"
   version="1.1"
   id="svg8"
   inkscape:version="0.92.3 (2405546, 2018-03-11)"
   sodipodi:docname="sc-apps-virtualdesktopbar_plasma_applet.svg">
  <defs
     id="defs2" />
  <sodipodi:namedview
     id="base"
     pagecolor="#ffffff"
     bordercolor="#666666"
     borderopacity="1.0"
     inkscape:pageopacity="0.0"
     inkscape:pageshadow="2"
     inkscape:zoom="1.6404877"
     inkscape:cx="18.779404"
     inkscape:cy="39.585599"
     inkscape:document-units="mm"
     inkscape:current-layer="layer1"
     showgrid="false"
     units="px"
     inkscape:window-width="1920"
     inkscape:window-height="1023"
     inkscape:window-x="0"
     inkscape:window-y="28"
     inkscape:window-maximized="1" />
  <metadata
     id="metadata5">
    <rdf:RDF>
      <cc:Work
         rdf:about="">
        <dc:format>image/svg+xml</dc:format>
        <dc:type
           rdf:resource="http://purl.org/dc/dcmitype/StillImage" />
        <dc:title />
      </cc:Work>
    </rdf:RDF>
  </metadata>
  <g
     inkscape:label="Layer 1"
     inkscape:groupmode="layer"
     id="layer1"
     transform="translate(0,-229.26665)">
    <rect
       style="opacity:1;fill:#31363b;fill-opacity:1;stroke:none;stroke-width:0.64948541;stroke-miterlimit:4;stroke-dasharray:none;stroke-opacity:1;paint-order:stroke markers fill"
       id="rect815"
       width="67.73333"
       height="67.73333"
       x="0"
       y="229.26665"
       rx="2"
       ry="2" />
    <rect
       y="269.2731"
       x="7.5959153"
       height="1.5785042"
       width="52.5415"
       id="rect819"
       style="opacity:1;fill:#3ba9e3;fill-opacity:1;stroke:none;stroke-width:0.13199197;stroke-miterlimit:4;stroke-dasharray:none;stroke-opacity:1;paint-order:stroke markers fill" />
    <g
       aria-label="Desktop"
       style="font-style:normal;font-weight:normal;font-size:10.58333302px;line-height:1.25;font-family:sans-serif;letter-spacing:0px;word-spacing:0px;fill:#000000;fill-opacity:1;stroke:none;stroke-width:0.26458332"
       id="text832">
      <path
         d="m 18.77652,260.96751 q 0,2.10714 -1.152525,3.17818 -1.140883,1.05939 -3.189817,1.05939 h -2.316691 v -8.31215 h 2.561166 q 1.245659,0 2.16535,0.46566 0.931334,0.46567 1.431925,1.37372 0.500592,0.90805 0.500592,2.2352 z m -1.105958,0.0349 q 0,-1.66476 -0.826559,-2.43311 -0.814916,-0.77999 -2.316691,-0.77999 h -1.362075 v 6.51933 h 1.129241 q 3.376084,0 3.376084,-3.30623 z"
         style="font-style:normal;font-variant:normal;font-weight:normal;font-stretch:normal;font-size:11.64166641px;font-family:'Noto Sans';-inkscape-font-specification:'Noto Sans';fill:#ffffff;stroke-width:0.26458332"
         id="path11" />
      <path
         d="m 22.891485,258.84873 q 0.791634,0 1.373717,0.34925 0.582083,0.34925 0.884767,0.98954 0.314325,0.62865 0.314325,1.47849 v 0.61701 h -4.272492 q 0.02328,1.05939 0.535517,1.61819 0.523875,0.54716 1.455208,0.54716 0.593725,0 1.04775,-0.10478 0.465667,-0.11641 0.954617,-0.32596 v 0.89641 q -0.477309,0.20955 -0.942975,0.30268 -0.465667,0.10477 -1.105959,0.10477 -0.896408,0 -1.571625,-0.36089 -0.675216,-0.36089 -1.059391,-1.07103 -0.372534,-0.71014 -0.372534,-1.75789 0,-1.02447 0.337609,-1.75789 0.34925,-0.73343 0.966258,-1.12925 0.62865,-0.39581 1.455208,-0.39581 z m -0.01164,0.8382 q -0.733425,0 -1.164167,0.47731 -0.4191,0.46566 -0.500592,1.30386 h 3.178175 q -0.01164,-0.79163 -0.372533,-1.28058 -0.360892,-0.50059 -1.140883,-0.50059 z"
         style="font-style:normal;font-variant:normal;font-weight:normal;font-stretch:normal;font-size:11.64166641px;font-family:'Noto Sans';-inkscape-font-specification:'Noto Sans';fill:#ffffff;stroke-width:0.26458332"
         id="path13" />
      <path
         d="m 31.115777,263.48211 q 0,0.90805 -0.675217,1.37372 -0.675217,0.46566 -1.8161,0.46566 -0.651933,0 -1.129242,-0.10477 -0.465666,-0.10478 -0.826558,-0.29104 v -0.93134 q 0.372533,0.18627 0.896408,0.34925 0.535517,0.15135 1.082675,0.15135 0.779992,0 1.129242,-0.24448 0.34925,-0.25612 0.34925,-0.67522 0,-0.23283 -0.128058,-0.4191 -0.128059,-0.18626 -0.465667,-0.37253 -0.325967,-0.18627 -0.942975,-0.4191 -0.605367,-0.23283 -1.036108,-0.46567 -0.430742,-0.23283 -0.663575,-0.5588 -0.232834,-0.32596 -0.232834,-0.8382 0,-0.79163 0.640292,-1.22237 0.651933,-0.43074 1.699683,-0.43074 0.570442,0 1.059392,0.11641 0.500592,0.11642 0.931333,0.30269 l -0.34925,0.81491 q -0.395816,-0.16298 -0.826558,-0.2794 -0.430742,-0.11641 -0.884767,-0.11641 -0.62865,0 -0.966258,0.20955 -0.325967,0.19791 -0.325967,0.54716 0,0.26775 0.151342,0.44238 0.151342,0.17462 0.500592,0.34925 0.360891,0.17462 0.954616,0.39582 0.593725,0.22119 1.012825,0.45402 0.4191,0.23283 0.640292,0.57044 0.221192,0.32597 0.221192,0.82656 z"
         style="font-style:normal;font-variant:normal;font-weight:normal;font-stretch:normal;font-size:11.64166641px;font-family:'Noto Sans';-inkscape-font-specification:'Noto Sans';fill:#ffffff;stroke-width:0.26458332"
         id="path15" />
      <path
         d="m 33.636379,256.35741 v 4.62174 q 0,0.18627 -0.02328,0.48895 -0.01164,0.30269 -0.02328,0.52388 h 0.04657 q 0.06985,-0.0931 0.20955,-0.26776 0.1397,-0.17463 0.2794,-0.34925 0.151341,-0.18627 0.256116,-0.30268 l 1.990725,-2.10715 h 1.199092 l -2.526242,2.66595 2.700867,3.57399 H 36.51187 l -2.16535,-2.91042 -0.710141,0.61701 v 2.29341 h -1.012825 v -8.84767 z"
         style="font-style:normal;font-variant:normal;font-weight:normal;font-stretch:normal;font-size:11.64166641px;font-family:'Noto Sans';-inkscape-font-specification:'Noto Sans';fill:#ffffff;stroke-width:0.26458332"
         id="path17" />
      <path
         d="m 40.914787,264.48329 q 0.232833,0 0.477308,-0.0349 0.244475,-0.0349 0.395817,-0.0931 v 0.77999 q -0.162984,0.0815 -0.465667,0.12806 -0.302683,0.0582 -0.582083,0.0582 -0.48895,0 -0.90805,-0.16298 -0.407459,-0.17462 -0.663575,-0.59372 -0.256117,-0.4191 -0.256117,-1.17581 v -3.6322 h -0.884767 v -0.48895 l 0.896409,-0.40746 0.407458,-1.32715 h 0.605367 v 1.43192 h 1.804458 v 0.79164 h -1.804458 v 3.60891 q 0,0.57045 0.267758,0.84985 0.2794,0.26775 0.710142,0.26775 z"
         style="font-style:normal;font-variant:normal;font-weight:normal;font-stretch:normal;font-size:11.64166641px;font-family:'Noto Sans';-inkscape-font-specification:'Noto Sans';fill:#ffffff;stroke-width:0.26458332"
         id="path19" />
      <path
         d="m 48.462406,262.07347 q 0,1.54834 -0.791633,2.39818 -0.779992,0.84984 -2.118784,0.84984 -0.826558,0 -1.478491,-0.37253 -0.640292,-0.38417 -1.012825,-1.10596 -0.372534,-0.73342 -0.372534,-1.76953 0,-1.54834 0.76835,-2.38654 0.779992,-0.8382 2.130425,-0.8382 0.8382,0 1.490134,0.38417 0.651933,0.37254 1.012825,1.09432 0.372533,0.71014 0.372533,1.74625 z m -4.714875,0 q 0,1.10596 0.430742,1.75789 0.442383,0.64029 1.397,0.64029 0.942975,0 1.385358,-0.64029 0.442383,-0.65193 0.442383,-1.75789 0,-1.10596 -0.442383,-1.73461 -0.442383,-0.62865 -1.397,-0.62865 -0.954617,0 -1.385358,0.62865 -0.430742,0.62865 -0.430742,1.73461 z"
         style="font-style:normal;font-variant:normal;font-weight:normal;font-stretch:normal;font-size:11.64166641px;font-family:'Noto Sans';-inkscape-font-specification:'Noto Sans';fill:#ffffff;stroke-width:0.26458332"
         id="path21" />
      <path
         d="m 53.05468,258.84873 q 1.152525,0 1.851025,0.80327 0.710142,0.80328 0.710142,2.42147 0,1.59491 -0.710142,2.42147 -0.6985,0.82655 -1.862666,0.82655 -0.721784,0 -1.199092,-0.26775 -0.465667,-0.26776 -0.733425,-0.6403 h -0.06985 q 0.01164,0.19791 0.03493,0.5006 0.03493,0.30268 0.03493,0.52387 v 2.56117 h -1.024467 v -9.03394 h 0.8382 l 0.1397,0.84985 h 0.04657 q 0.2794,-0.40746 0.733425,-0.68686 0.454025,-0.2794 1.210733,-0.2794 z m -0.186266,0.86148 q -0.954617,0 -1.350434,0.53552 -0.395816,0.53551 -0.407458,1.62983 v 0.19791 q 0,1.15252 0.372533,1.78117 0.384175,0.61701 1.408642,0.61701 0.5588,0 0.931333,-0.30268 0.372534,-0.31433 0.547159,-0.86148 0.186266,-0.54716 0.186266,-1.24566 0,-1.07104 -0.4191,-1.71133 -0.407458,-0.64029 -1.268941,-0.64029 z"
         style="font-style:normal;font-variant:normal;font-weight:normal;font-stretch:normal;font-size:11.64166641px;font-family:'Noto Sans';-inkscape-font-specification:'Noto Sans';fill:#ffffff;stroke-width:0.26458332"
         id="path23" />
    </g>
  </g>
</svg>
