<?xml version="1.0" encoding="UTF-8" standalone="no"?>
<!-- Created with Inkscape (http://www.inkscape.org/) -->

<svg
   xmlns:dc="http://purl.org/dc/elements/1.1/"
   xmlns:cc="http://creativecommons.org/ns#"
   xmlns:rdf="http://www.w3.org/1999/02/22-rdf-syntax-ns#"
   xmlns:svg="http://www.w3.org/2000/svg"
   xmlns="http://www.w3.org/2000/svg"
   xmlns:sodipodi="http://sodipodi.sourceforge.net/DTD/sodipodi-0.dtd"
   xmlns:inkscape="http://www.inkscape.org/namespaces/inkscape"
   width="256"
   height="256"
   viewBox="0 0 67.733332 67.733336"
   version="1.1"
   id="svg8"
   inkscape:version="0.92.3 (2405546, 2018-03-11)"
   sodipodi:docname="icon.svg">
  <defs
     id="defs2" />
  <sodipodi:namedview
     id="base"
     pagecolor="#ffffff"
     bordercolor="#666666"
     borderopacity="1.0"
     inkscape:pageopacity="0.0"
     inkscape:pageshadow="2"
     inkscape:zoom="1.979899"
     inkscape:cx="138.77447"
     inkscape:cy="91.775309"
     inkscape:document-units="mm"
     inkscape:current-layer="layer1"
     showgrid="false"
     units="px"
     inkscape:window-width="1920"
     inkscape:window-height="1025"
     inkscape:window-x="0"
     inkscape:window-y="26"
     inkscape:window-maximized="1" />
  <metadata
     id="metadata5">
    <rdf:RDF>
      <cc:Work
         rdf:about="">
        <dc:format>image/svg+xml</dc:format>
        <dc:type
           rdf:resource="http://purl.org/dc/dcmitype/StillImage" />
        <dc:title />
      </cc:Work>
    </rdf:RDF>
  </metadata>
  <g
     inkscape:label="Layer 1"
     inkscape:groupmode="layer"
     id="layer1"
     transform="translate(0,-229.26665)">
    <rect
       style="opacity:1;fill:#31363b;fill-opacity:1;stroke:none;stroke-width:0.64948541;stroke-miterlimit:4;stroke-dasharray:none;stroke-opacity:1;paint-order:stroke markers fill"
       id="rect815"
       width="67.73333"
       height="67.73333"
       x="0"
       y="229.26665" />
    <g
       id="g32"
       transform="matrix(1.1006711,0,0,1.1006711,-3.4093961,-25.790733)">
      <rect
         style="opacity:1;fill:#3ba9e3;fill-opacity:1;stroke:none;stroke-width:0.14185259;stroke-miterlimit:4;stroke-dasharray:none;stroke-opacity:1;paint-order:stroke markers fill"
         id="rect819"
         width="39.823158"
         height="2.4054255"
         x="13.955088"
         y="266.1532" />
      <g
         id="text20"
         style="font-style:normal;font-weight:normal;font-size:10.58333302px;line-height:1.25;font-family:sans-serif;letter-spacing:0px;word-spacing:0px;fill:#000000;fill-opacity:1;stroke:none;stroke-width:0.26458332"
         aria-label="Plasma">
        <path
           id="path22"
           style="font-style:normal;font-variant:normal;font-weight:bold;font-stretch:normal;font-family:'Noto Sans';-inkscape-font-specification:'Noto Sans Bold';fill:#ffffff;stroke-width:0.26458332"
           d="m 17.998944,256.23159 q 1.4605,0 2.12725,0.635 0.677333,0.62441 0.677333,1.72508 0,0.66675 -0.275167,1.23825 -0.275166,0.5715 -0.92075,0.92075 -0.635,0.34925 -1.735666,0.34925 h -0.687917 v 2.68817 h -1.598083 v -7.5565 z m -0.08467,1.31233 h -0.73025 v 2.24367 h 0.529167 q 0.677333,0 1.068916,-0.26459 0.402167,-0.27516 0.402167,-0.87841 0,-1.10067 -1.27,-1.10067 z"
           inkscape:connector-curvature="0" />
        <path
           id="path24"
           style="font-style:normal;font-variant:normal;font-weight:bold;font-stretch:normal;font-family:'Noto Sans';-inkscape-font-specification:'Noto Sans Bold';fill:#ffffff;stroke-width:0.26458332"
           d="m 23.691785,263.78809 h -1.576917 v -8.04334 h 1.576917 z"
           inkscape:connector-curvature="0" />
        <path
           id="path26"
           style="font-style:normal;font-variant:normal;font-weight:bold;font-stretch:normal;font-family:'Noto Sans';-inkscape-font-specification:'Noto Sans Bold';fill:#ffffff;stroke-width:0.26458332"
           d="m 27.710144,257.89317 q 1.164166,0 1.778,0.508 0.624416,0.49742 0.624416,1.53458 v 3.85234 h -1.100666 l -0.306917,-0.78317 h -0.04233 q -0.370417,0.46567 -0.783167,0.67733 -0.41275,0.21167 -1.132417,0.21167 -0.772583,0 -1.280583,-0.4445 -0.508,-0.4445 -0.508,-1.38642 0,-0.92075 0.645583,-1.35466 0.645584,-0.43392 1.93675,-0.48684 l 1.005417,-0.0317 v -0.254 q 0,-0.45508 -0.243417,-0.66675 -0.232833,-0.21166 -0.656166,-0.21166 -0.423334,0 -0.8255,0.127 -0.402167,0.11641 -0.804334,0.29633 L 25.49823,258.4118 q 0.455083,-0.23283 1.026583,-0.37041 0.5715,-0.14817 1.185334,-0.14817 z m 0.836083,3.21733 -0.613833,0.0212 q -0.762,0.0212 -1.058334,0.27517 -0.296333,0.254 -0.296333,0.66675 0,0.35983 0.211667,0.51858 0.211666,0.14817 0.550333,0.14817 0.508,0 0.85725,-0.29634 0.34925,-0.30691 0.34925,-0.85725 z"
           inkscape:connector-curvature="0" />
        <path
           id="path28"
           style="font-style:normal;font-variant:normal;font-weight:bold;font-stretch:normal;font-family:'Noto Sans';-inkscape-font-specification:'Noto Sans Bold';fill:#ffffff;stroke-width:0.26458332"
           d="m 35.758934,262.07359 q 0,0.87841 -0.624417,1.35466 -0.613833,0.46567 -1.8415,0.46567 -0.60325,0 -1.037166,-0.0847 -0.433917,-0.0741 -0.867834,-0.254 v -1.30175 q 0.465667,0.21167 1.005417,0.34925 0.53975,0.13759 0.9525,0.13759 0.455083,0 0.656167,-0.13759 0.201083,-0.13758 0.201083,-0.35983 0,-0.14817 -0.08467,-0.26458 -0.07408,-0.11642 -0.338666,-0.26459 -0.264584,-0.14816 -0.8255,-0.381 -0.550334,-0.23283 -0.899584,-0.45508 -0.338666,-0.23283 -0.508,-0.55033 -0.169333,-0.32809 -0.169333,-0.81492 0,-0.80433 0.624417,-1.2065 0.624416,-0.40217 1.661583,-0.40217 0.53975,0 1.026583,0.10584 0.486834,0.10583 1.005417,0.34925 l -0.47625,1.13241 q -0.423333,-0.17991 -0.804333,-0.29633 -0.381,-0.127 -0.772584,-0.127 -0.6985,0 -0.6985,0.381 0,0.13758 0.08467,0.254 0.09525,0.10583 0.34925,0.23283 0.264583,0.127 0.772583,0.33867 0.497417,0.20108 0.85725,0.42333 0.359834,0.21167 0.550334,0.53975 0.201083,0.32809 0.201083,0.83609 z"
           inkscape:connector-curvature="0" />
        <path
           id="path30"
           style="font-style:normal;font-variant:normal;font-weight:bold;font-stretch:normal;font-family:'Noto Sans';-inkscape-font-specification:'Noto Sans Bold';fill:#ffffff;stroke-width:0.26458332"
           d="m 43.760927,257.90375 q 0.98425,0 1.481666,0.508 0.508,0.49742 0.508,1.60867 v 3.76767 H 44.173677 V 260.412 q 0,-1.24883 -0.867834,-1.24883 -0.624416,0 -0.889,0.4445 -0.264583,0.4445 -0.264583,1.28058 v 2.89984 H 40.575343 V 260.412 q 0,-1.24883 -0.867833,-1.24883 -0.656167,0 -0.910167,0.49742 -0.243416,0.48683 -0.243416,1.40758 v 2.71992 H 36.97701 v -5.7785 h 1.2065 l 0.211667,0.74083 h 0.08467 q 0.264583,-0.4445 0.719666,-0.64558 0.465667,-0.20109 0.963083,-0.20109 0.635,0 1.068917,0.21167 0.4445,0.20108 0.687917,0.635 h 0.137583 q 0.264583,-0.4445 0.73025,-0.64558 0.47625,-0.20109 0.973667,-0.20109 z"
           inkscape:connector-curvature="0" />
        <path
           id="path32"
           style="font-style:normal;font-variant:normal;font-weight:bold;font-stretch:normal;font-family:'Noto Sans';-inkscape-font-specification:'Noto Sans Bold';fill:#ffffff;stroke-width:0.26458332"
           d="m 49.744974,257.89317 q 1.164166,0 1.778,0.508 0.624416,0.49742 0.624416,1.53458 v 3.85234 h -1.100666 l -0.306917,-0.78317 h -0.04233 q -0.370417,0.46567 -0.783167,0.67733 -0.41275,0.21167 -1.132417,0.21167 -0.772583,0 -1.280583,-0.4445 -0.508,-0.4445 -0.508,-1.38642 0,-0.92075 0.645583,-1.35466 0.645584,-0.43392 1.93675,-0.48684 l 1.005417,-0.0317 v -0.254 q 0,-0.45508 -0.243417,-0.66675 -0.232833,-0.21166 -0.656166,-0.21166 -0.423334,0 -0.8255,0.127 -0.402167,0.11641 -0.804334,0.29633 L 47.53306,258.4118 q 0.455083,-0.23283 1.026583,-0.37041 0.5715,-0.14817 1.185334,-0.14817 z m 0.836083,3.21733 -0.613833,0.0212 q -0.762,0.0212 -1.058334,0.27517 -0.296333,0.254 -0.296333,0.66675 0,0.35983 0.211667,0.51858 0.211666,0.14817 0.550333,0.14817 0.508,0 0.85725,-0.29634 0.34925,-0.30691 0.34925,-0.85725 z"
           inkscape:connector-curvature="0" />
      </g>
    </g>
  </g>
</svg>
